<svg xmlns="http://www.w3.org/2000/svg" width="1920" height="1080" viewBox="0 0 1920 1080">
  <defs>
    <linearGradient id="bg" x1="0" y1="0" x2="1" y2="1">
      <stop offset="0" stop-color="#172033"/>
      <stop offset="0.55" stop-color="#1e3a46"/>
      <stop offset="1" stop-color="#2f4f46"/>
    </linearGradient>
    <linearGradient id="tile" x1="0" y1="0" x2="1" y2="1">
      <stop offset="0" stop-color="#5fb3a5" stop-opacity="0.34"/>
      <stop offset="1" stop-color="#78d0b4" stop-opacity="0.1"/>
    </linearGradient>
  </defs>
  <rect width="1920" height="1080" fill="url(#bg)"/>
  <g opacity="0.28">
    <path d="M-120 920 L620 110 L870 110 L140 1040 Z" fill="url(#tile)"/>
    <path d="M480 1080 L1180 170 L1510 170 L810 1080 Z" fill="#ffffff" opacity="0.08"/>
    <path d="M1160 1080 L1790 300 L2100 300 L1500 1080 Z" fill="#69c4ad" opacity="0.13"/>
  </g>
  <g transform="translate(118 118)">
    <rect x="0" y="0" width="118" height="118" rx="18" fill="#69c4ad"/>
    <rect x="22" y="22" width="30" height="30" rx="5" fill="#172033"/>
    <rect x="66" y="22" width="30" height="30" rx="5" fill="#172033"/>
    <rect x="22" y="66" width="30" height="30" rx="5" fill="#172033"/>
    <rect x="66" y="66" width="30" height="30" rx="5" fill="#172033"/>
    <text x="148" y="51" font-family="Noto Sans, Liberation Sans, Arial, sans-serif" font-size="40" font-weight="700" fill="#f8fafc">EduLab Linux</text>
    <text x="150" y="89" font-family="Noto Sans, Liberation Sans, Arial, sans-serif" font-size="21" fill="#d6e7e2">Phong may IC3</text>
  </g>
</svg>
