<svg xmlns="http://www.w3.org/2000/svg" width="1920" height="1080" viewBox="0 0 1920 1080">
  <defs>
    <linearGradient id="bg" x1="0" y1="0" x2="1" y2="1">
      <stop offset="0" stop-color="#071426"/>
      <stop offset="0.42" stop-color="#103d75"/>
      <stop offset="1" stop-color="#26a0c9"/>
    </linearGradient>
    <radialGradient id="glow" cx="50%" cy="50%" r="60%">
      <stop offset="0" stop-color="#bdf2ff" stop-opacity="0.62"/>
      <stop offset="0.5" stop-color="#4cc4ff" stop-opacity="0.22"/>
      <stop offset="1" stop-color="#071426" stop-opacity="0"/>
    </radialGradient>
    <linearGradient id="ribbonA" x1="0" y1="0" x2="1" y2="1">
      <stop offset="0" stop-color="#ffffff" stop-opacity="0.55"/>
      <stop offset="0.4" stop-color="#72d9ff" stop-opacity="0.32"/>
      <stop offset="1" stop-color="#1b6fd6" stop-opacity="0.08"/>
    </linearGradient>
    <linearGradient id="ribbonB" x1="1" y1="0" x2="0" y2="1">
      <stop offset="0" stop-color="#80f0ff" stop-opacity="0.55"/>
      <stop offset="0.48" stop-color="#3ba5ff" stop-opacity="0.2"/>
      <stop offset="1" stop-color="#10243f" stop-opacity="0"/>
    </linearGradient>
    <filter id="soft">
      <feGaussianBlur stdDeviation="28"/>
    </filter>
  </defs>
  <rect width="1920" height="1080" fill="url(#bg)"/>
  <ellipse cx="970" cy="560" rx="720" ry="420" fill="url(#glow)" opacity="0.85"/>
  <g filter="url(#soft)" opacity="0.78">
    <path d="M168 723 C470 430 673 300 932 306 C1192 312 1421 459 1752 248 C1575 568 1264 743 936 744 C646 745 401 654 168 723 Z" fill="url(#ribbonA)"/>
    <path d="M257 360 C546 645 819 782 1111 749 C1377 719 1556 552 1805 646 C1545 828 1256 917 922 874 C617 835 384 660 257 360 Z" fill="url(#ribbonB)"/>
  </g>
  <g opacity="0.22">
    <path d="M-60 1040 C260 760 540 662 842 710 C1144 758 1374 956 1980 846 L1980 1080 L-60 1080 Z" fill="#ffffff"/>
    <path d="M-80 140 C302 344 627 388 939 299 C1252 210 1533 29 2000 93 L2000 0 L-80 0 Z" fill="#6ed7ff"/>
  </g>
</svg>
